<svg height="480pt" viewBox="0 -12 480.00012 480" width="480pt" xmlns="http://www.w3.org/2000/svg"><path d="m429.121094 217.851562c-.929688-.769531-2.027344-1.320312-3.199219-1.597656l-30.9375-7.738281-54.984375-31.464844c-.457031-.261719-.9375-.480469-1.441406-.648437l-22.207032-7.398438-21.359374-21.328125-15.398438-46.207031c-.300781-.898438-.757812-1.734375-1.34375-2.472656l-32-40c-1.503906-1.875-3.769531-2.976563-6.167969-3-2.398437.003906-4.671875 1.054687-6.226562 2.878906l-40 48c-.472657.570312-.867188 1.199219-1.167969 1.871094l-31.152344 70.097656-23 17.25-35.542968-64c-1.355469-2.441406-3.882813-3.996094-6.667969-4.109375-2.789063-.113281-5.433594 1.234375-6.980469 3.554687l-16.335938 24.554688-38.800781 69.839844-29.78125 14.863281c-2.726562 1.359375-4.441406 4.152344-4.425781 7.199219v200c0 4.417968 3.582031 8 8 8h464c4.417969 0 8-3.582032 8-8v-184c0-2.375-1.054688-4.625-2.878906-6.144532zm-413.121094 35.089844 16-8v27.054688h16v-37.929688l24-43.199218v41.128906h16v-69.601563l7.375-11.070312 31.585938 56.839843-36.417969 72.800782-68.277344 15.199218c-1.488281.324219-2.847656 1.074219-3.921875 2.152344l-2.34375 2.367188zm96 187.054688h-96v-16h96zm-64-32v-16h96v16zm112-127.054688 24 12v19.054688h-16v-16h-16v16h-16v-19.054688zm-16-9.890625v-7.054687h16c-1.238281-.015625-2.460938.261718-3.574219.800781zm176 8.945313h-14.113281l-30.3125-15.199219c-1.113281-.539063-2.335938-.816406-3.574219-.800781h48zm8 16h16v16h-32v-16zm-32-3.054688v19.054688h-16v-16h-16v16h-16v-19.054688l24-12zm-40-21.890625-16 8v-23.054687c0-4.417969-3.582031-8-8-8h-32c-4.417969 0-8 3.582031-8 8v23.054687l-16-8v-11.742187l27.3125-27.3125h25.375l27.3125 27.3125zm-24 24.945313v16h-32v-16zm-24-16v-16h16v16zm-16 48h8v16h-96v-16zm-16 32v16h-96v-16zm56 56v24h-104v-16h24c4.417969 0 8-3.582032 8-8v-24h24c4.417969 0 8-3.582032 8-8v-24h16c4.417969 0 8-3.582032 8-8v-24h112v16h-24c-4.417969 0-8 3.582031-8 8v24h-24c-4.417969 0-8 3.582031-8 8v24h-24c-4.417969 0-8 3.582031-8 8zm232 24h-216v-16h216zm0-32h-184v-16h184zm0-32h-152v-16h152zm0-32h-120v-16h120zm-88-48v16h-16v-19.054688l24-12 24 12v19.054688h-16v-16zm88 16h-40v-16h40zm0-32h-46.113281l-17.886719-8.945313v-23.054687h-16v16c-1.238281-.015625-2.460938.261718-3.574219.800781l-12.425781 6.253906v-39.054687h-16v47.054687l-1.886719.945313h-14.113281v-24c0-4.417969-3.582031-8-8-8h-32v-32h-16v32h-12.6875l-29.65625-29.65625c-1.5-1.5-3.535156-2.34375-5.65625-2.34375h-32c-2.121094 0-4.15625.84375-5.65625 2.34375l-29.65625 29.65625h-4.6875v-16h-16v16h-8c-4.417969 0-8 3.582031-8 8v23.054687l-3.574219 1.785157c-2.714843 1.355468-4.425781 4.128906-4.425781 7.160156v24h-24c-4.417969 0-8 3.582031-8 8v24h-16c-4.417969 0-8 3.582031-8 8v24h-24c-4.417969 0-8 3.582031-8 8v24h-16v-84.6875l12-12 69.726562-15.496094c2.355469-.523438 4.347657-2.078125 5.425782-4.234375l39.152344-78.308594 30.496093-22.875c1.09375-.816406 1.957031-1.902343 2.511719-3.152343l16.6875-37.550782v34.304688h16v-69.105469l31.871094-38.246094 24.992187 31.199219 15.136719 45.457031v46.695313h16v-28.6875l10.34375 10.34375c.878906.875 1.949219 1.539062 3.128906 1.9375l18.527344 6.175781v26.230469h16v-18.214844l44 25.160156c.632812.359375 1.316406.628906 2.023438.796875l25.976562 6.503907v17.753906h16v-6.921875l32 26.664062zm0 0"/><path d="m72 247.996094h16v16h-16zm0 0"/><path d="m320 95.996094h30.207031c-6.371093 7.019531-8 17.140625-4.144531 25.800781 3.851562 8.664063 12.457031 14.230469 21.9375 14.199219h72c13.253906 0 24-10.746094 24-24s-10.746094-24-24-24h-3.457031c-4.09375-9.351563-11.617188-16.78125-21.023438-20.753906-2.261719-11.191407-12.097656-19.242188-23.519531-19.246094h-3.457031c-6.34375-14.65625-20.832031-24.109375-36.804688-24.003906-15.96875.101562-30.335937 9.738281-36.488281 24.476562-12.09375 2.433594-20.375 13.640625-19.144531 25.914062 1.226562 12.277344 11.558593 21.621094 23.894531 21.613282zm103.121094 2c.910156 3.53125 4.097656 6 7.742187 6h9.136719c4.417969 0 8 3.582031 8 8 0 4.417968-3.582031 8-8 8h-72c-4.417969 0-8-3.582032-8-8 0-4.417969 3.582031-8 8-8h1.136719c3.648437 0 6.832031-2.46875 7.742187-6 2.679688-10.585938 12.203125-18 23.121094-18s20.441406 7.414062 23.121094 18zm-103.121094-34h1.121094c3.636718 0 6.816406-2.457032 7.734375-5.976563 2.679687-10.597656 12.214843-18.019531 23.144531-18.019531s20.464844 7.421875 23.144531 18.019531c.917969 3.519531 4.097657 5.976563 7.734375 5.976563h9.121094c.738281.042968 1.464844.191406 2.160156.441406-10.355468 1.570312-19.675781 7.160156-25.9375 15.558594h-48.222656c-4.417969 0-8-3.582032-8-8 0-4.417969 3.582031-8 8-8zm0 0"/><path d="m80 79.996094h72c11.695312.007812 21.691406-8.417969 23.667969-19.941406 1.976562-11.527344-4.640625-22.800782-15.667969-26.691407v-1.367187c.03125-12.5625-7.308594-23.980469-18.757812-29.15625-11.445313-5.179688-24.867188-3.164063-34.28125 5.15625h-2.960938c-15.015625.015625-28.007812 10.457031-31.257812 25.121094-11.285157 3.574218-18.28125 14.847656-16.46875 26.550781 1.808593 11.699219 11.886718 20.332031 23.726562 20.328125zm0-32c4.417969 0 8-3.582032 8-8 0-8.835938 7.164062-16 16-16h6.222656c2.269532 0 4.429688-.964844 5.945313-2.648438 2.996093-3.394531 7.304687-5.34375 11.832031-5.351562 8.835938 0 16 7.164062 16 16v8c0 4.417968 3.582031 8 8 8s8 3.582031 8 8c0 4.417968-3.582031 8-8 8h-72c-4.417969 0-8-3.582032-8-8 0-4.417969 3.582031-8 8-8zm0 0"/></svg>